<?xml version="1.0" standalone="no"?>
<!DOCTYPE svg PUBLIC "-//W3C//DTD SVG 20010904//EN"
 "http://www.w3.org/TR/2001/REC-SVG-20010904/DTD/svg10.dtd">
<svg version="1.0" xmlns="http://www.w3.org/2000/svg"
 width="614.000000pt" height="614.000000pt" viewBox="0 0 614.000000 614.000000"
 preserveAspectRatio="xMidYMid meet">
<metadata>
Created by potrace 1.11, written by Peter Selinger 2001-2013
</metadata>
<g transform="translate(0.000000,614.000000) scale(0.100000,-0.100000)"
fill="#000000" stroke="none">
<path d="M2879 6096 c-2 -2 -40 -6 -84 -10 -44 -3 -91 -8 -105 -10 -14 -3 -47
-7 -75 -11 -71 -9 -238 -43 -320 -66 -38 -11 -77 -22 -85 -24 -136 -31 -414
-146 -608 -253 -146 -79 -144 -78 -268 -163 -208 -145 -406 -320 -563 -499
-105 -119 -311 -404 -311 -429 0 -6 -4 -11 -10 -11 -5 0 -10 -4 -10 -8 0 -4
-25 -53 -55 -107 -110 -200 -240 -535 -280 -723 -2 -9 -10 -49 -19 -88 -15
-69 -32 -171 -42 -244 -2 -19 -7 -51 -9 -70 -3 -19 -7 -132 -10 -250 -3 -193
0 -264 20 -450 10 -83 53 -306 76 -385 26 -91 68 -224 79 -250 4 -11 18 -47
31 -80 33 -88 129 -289 179 -375 44 -77 160 -261 170 -270 3 -3 25 -32 49 -65
25 -33 47 -62 51 -65 3 -3 29 -34 59 -70 318 -388 786 -713 1290 -896 185 -67
475 -138 646 -158 28 -3 79 -9 115 -13 87 -10 464 -10 570 0 72 7 218 28 298
43 12 2 34 6 50 9 15 3 63 15 107 26 44 12 87 22 95 24 51 11 275 91 367 130
663 283 1198 781 1521 1418 43 84 86 172 96 197 104 250 188 567 212 795 3 33
10 89 14 125 9 66 5 497 -4 560 -3 19 -8 51 -10 70 -5 38 -23 146 -32 195 -40
223 -150 548 -256 760 -117 234 -302 507 -453 670 -222 240 -396 387 -650 550
-111 71 -330 186 -435 229 -25 10 -58 24 -75 31 -16 7 -52 20 -80 30 -27 9
-59 21 -70 26 -84 37 -438 117 -600 135 -33 3 -69 8 -80 11 -24 5 -491 14
-496 9z"/>
</g>
</svg>
